<?xml version="1.0" encoding="UTF-8" standalone="no"?>
<svg
   version="1.2"
   viewBox="0 0 100 100"
   width="100"
   height="100"
   id="svg1"
   xmlns="http://www.w3.org/2000/svg"
   xmlns:svg="http://www.w3.org/2000/svg"
   xmlns:rdf="http://www.w3.org/1999/02/22-rdf-syntax-ns#"
   xmlns:cc="http://creativecommons.org/ns#"
   xmlns:dc="http://purl.org/dc/elements/1.1/">
  <defs
     id="defs1" />
  <title
     id="title1">half-cross-upper-svg</title>
  <style
     id="style1">&#10;		.s0 { fill: #c0c0c0 } &#10;	</style>
  <path
     id="Shape 1"
     class="s0"
     d="m 39.563017,91.521351 c 0,0 -2.1,1.8 -4,0 -1.9,-1.8 -8,-8 -8,-8 0,0 -2.1,-1.1 0.4,-3.8 2.5,-2.7 24.7,-25.2 24.7,-25.2 l -25.1,-25.2 c 0,0 -1.5,-1.7 -0.9,-3.1 1.4,-3.1 8.4,-9 8.4,-9 0,0 1.3,-2 5.3,1.4 1.5,1.2 20.9,20 30.9,31.1 1.9,2.1 2.3,3.4 2.3,4.8 0,1.4 -1.6,4.4 -3.2,6 -9.7,10.2 -30.8,31 -30.8,31 z" />
  <metadata
     id="metadata1">
    <rdf:RDF>
      <cc:Work
         rdf:about="">
        <dc:title>half-cross-upper-svg</dc:title>
      </cc:Work>
    </rdf:RDF>
  </metadata>
</svg>
