<?xml version="1.0" encoding="UTF-8" standalone="no"?>
<svg
   version="1.2"
   viewBox="0 0 100 100"
   width="100"
   height="100"
   id="svg1"
   sodipodi:docname="arrow-down-white.svg"
   inkscape:version="1.3 (0e150ed6c4, 2023-07-21)"
   xmlns:inkscape="http://www.inkscape.org/namespaces/inkscape"
   xmlns:sodipodi="http://sodipodi.sourceforge.net/DTD/sodipodi-0.dtd"
   xmlns="http://www.w3.org/2000/svg"
   xmlns:svg="http://www.w3.org/2000/svg"
   xmlns:rdf="http://www.w3.org/1999/02/22-rdf-syntax-ns#"
   xmlns:cc="http://creativecommons.org/ns#"
   xmlns:dc="http://purl.org/dc/elements/1.1/">
  <defs
     id="defs1" />
  <sodipodi:namedview
     id="namedview1"
     pagecolor="#505050"
     bordercolor="#eeeeee"
     borderopacity="1"
     inkscape:showpageshadow="0"
     inkscape:pageopacity="0"
     inkscape:pagecheckerboard="0"
     inkscape:deskcolor="#505050"
     showgrid="false"
     inkscape:zoom="11.81"
     inkscape:cx="50"
     inkscape:cy="49.957663"
     inkscape:window-width="2518"
     inkscape:window-height="1368"
     inkscape:window-x="1292"
     inkscape:window-y="2160"
     inkscape:window-maximized="0"
     inkscape:current-layer="svg1" />
  <title
     id="title1">half-cross-upper-svg</title>
  <style
     id="style1">&#10;		.s0 { fill: #ffffff } &#10;	</style>
  <path
     id="Shape 1"
     class="s0"
     d="m 39.563017,91.521351 c 0,0 -2.1,1.8 -4,0 -1.9,-1.8 -8,-8 -8,-8 0,0 -2.1,-1.1 0.4,-3.8 2.5,-2.7 24.7,-25.2 24.7,-25.2 l -25.1,-25.2 c 0,0 -1.5,-1.7 -0.9,-3.1 1.4,-3.1 8.4,-9 8.4,-9 0,0 1.3,-2 5.3,1.4 1.5,1.2 20.9,20 30.9,31.1 1.9,2.1 2.3,3.4 2.3,4.8 0,1.4 -1.6,4.4 -3.2,6 -9.7,10.2 -30.8,31 -30.8,31 z" />
  <metadata
     id="metadata1">
    <rdf:RDF>
      <cc:Work
         rdf:about="">
        <dc:title>half-cross-upper-svg</dc:title>
      </cc:Work>
    </rdf:RDF>
  </metadata>
</svg>
