<svg xmlns="http://www.w3.org/2000/svg" viewBox="0 0 24 24" width="32px" height="32px">
  <path d="M 11.984375 2.9863281 A 1.0001 1.0001 0 0 0 11 4 L 11 14 L 9.75 14 C 9.447 14 9.1726406 14.181891 9.0566406 14.462891 C 9.0186406 14.555891 9 14.653 9 14.75 C 9 14.945 9.0767031 15.136297 9.2207031 15.279297 L 11.470703 17.529297 C 11.763703 17.822297 12.236297 17.822297 12.529297 17.529297 L 14.779297 15.279297 C 14.994297 15.064297 15.058359 14.743891 14.943359 14.462891 C 14.827359 14.181891 14.553 14 14.25 14 L 13 14 L 13 4 A 1.0001 1.0001 0 0 0 11.984375 2.9863281 z M 2.9902344 2.9902344 A 1.0001 1.0001 0 0 0 2.2929688 4.7070312 L 5 7.4140625 L 5 11 L 3.75 11 C 3.447 11 3.1726406 11.181891 3.0566406 11.462891 C 3.0186406 11.555891 3 11.653 3 11.75 C 3 11.945 3.0767031 12.136297 3.2207031 12.279297 L 5.4707031 14.529297 C 5.7637031 14.822297 6.2362969 14.822297 6.5292969 14.529297 L 8.7792969 12.279297 C 8.9942969 12.064297 9.0583594 11.743891 8.9433594 11.462891 C 8.8273594 11.181891 8.553 11 8.25 11 L 7 11 L 7 7 A 1.0001 1.0001 0 0 0 6.7070312 6.2929688 L 3.7070312 3.2929688 A 1.0001 1.0001 0 0 0 2.9902344 2.9902344 z M 20.980469 2.9902344 A 1.0001 1.0001 0 0 0 20.292969 3.2929688 L 17.292969 6.2929688 A 1.0001 1.0001 0 0 0 17 7 L 17 11 L 15.75 11 C 15.447 11 15.172641 11.181891 15.056641 11.462891 C 15.018641 11.555891 15 11.653 15 11.75 C 15 11.945 15.076703 12.136297 15.220703 12.279297 L 17.470703 14.529297 C 17.763703 14.822297 18.236297 14.822297 18.529297 14.529297 L 20.779297 12.279297 C 20.994297 12.064297 21.058359 11.743891 20.943359 11.462891 C 20.827359 11.181891 20.553 11 20.25 11 L 19 11 L 19 7.4140625 L 21.707031 4.7070312 A 1.0001 1.0001 0 0 0 20.980469 2.9902344 z M 2.984375 16.986328 A 1.0001 1.0001 0 0 0 2 18 L 2 20 C 2 21.093063 2.9069372 22 4 22 L 20 22 C 21.093063 22 22 21.093063 22 20 L 22 18 A 1.0001 1.0001 0 1 0 20 18 L 20 20 L 4 20 L 4 18 A 1.0001 1.0001 0 0 0 2.984375 16.986328 z" fill="#FFFFFF" />
</svg>